HIERARCHY
ROOT hip
{
  OFFSET 0 0 0
  CHANNELS 6 Xposition Yposition Zposition Zrotation Yrotation Xrotation
  JOINT abdomen
  {
    OFFSET 0 20.6881 -0.73152
    CHANNELS 3 Zrotation Xrotation Yrotation
    JOINT chest
    {
      OFFSET 0 11.7043 -0.48768
      CHANNELS 3 Zrotation Xrotation Yrotation
      JOINT neck
      {
        OFFSET 0 22.1894 -2.19456
        CHANNELS 3 Zrotation Xrotation Yrotation
        JOINT head
        {
          OFFSET -0.24384 7.07133 1.2192
          CHANNELS 3 Zrotation Xrotation Yrotation
          JOINT leftEye
          {
            OFFSET 4.14528 8.04674 8.04672
            CHANNELS 3 Zrotation Xrotation Yrotation
            End Site
            {
              OFFSET 1 0 0
            }
          }
          JOINT rightEye
          {
            OFFSET -3.6576 8.04674 8.04672
            CHANNELS 3 Zrotation Xrotation Yrotation
            End Site
            {
              OFFSET 1 0 0
            }
          }
        }
      }
      JOINT rCollar
      {
        OFFSET -2.68224 19.2634 -4.8768
        CHANNELS 3 Zrotation Xrotation Yrotation
        JOINT rShldr
        {
          OFFSET -8.77824 -1.95073 1.46304
          CHANNELS 3 Zrotation Xrotation Yrotation
          JOINT rForeArm
          {
            OFFSET -28.1742 -1.7115 0.48768
            CHANNELS 3 Zrotation Xrotation Yrotation
            JOINT rHand
            {
              OFFSET -22.5879 0.773209 7.07136
              CHANNELS 3 Zrotation Xrotation Yrotation
              JOINT rThumb1
              {
                OFFSET -1.2192 -0.487915 3.41376
                CHANNELS 3 Zrotation Xrotation Yrotation
                JOINT rThumb2
                {
                  OFFSET -3.37035 -0.52449 3.41376
                  CHANNELS 3 Zrotation Xrotation Yrotation
                  End Site
                  {
                    OFFSET -1.78271 -1.18214 1.43049
                  }
                }
              }
              JOINT rIndex1
              {
                OFFSET -7.75947 0.938293 5.60832
                CHANNELS 3 Zrotation Xrotation Yrotation
                JOINT rIndex2
                {
                  OFFSET -2.54057 -0.884171 1.56538
                  CHANNELS 3 Zrotation Xrotation Yrotation
                  End Site
                  {
                    OFFSET -1.62519 -0.234802 1.16502
                  }
                }
              }
              JOINT rMid1
              {
                OFFSET -8.24714 1.18213 3.41376
                CHANNELS 3 Zrotation Xrotation Yrotation
                JOINT rMid2
                {
                  OFFSET -3.10165 -0.590103 1.0647
                  CHANNELS 3 Zrotation Xrotation Yrotation
                  End Site
                  {
                    OFFSET -2.48547 -0.328903 0.83742
                  }
                }
              }
              JOINT rRing1
              {
                OFFSET -8.82822 0.546677 1.51678
                CHANNELS 3 Zrotation Xrotation Yrotation
                JOINT rRing2
                {
                  OFFSET -2.60934 -0.819778 -0.0198488
                  CHANNELS 3 Zrotation Xrotation Yrotation
                  End Site
                  {
                    OFFSET -2.33842 -0.294052 0.168128
                  }
                }
              }
              JOINT rPinky1
              {
                OFFSET -8.27202 -0.0477905 -0.4584
                CHANNELS 3 Zrotation Xrotation Yrotation
                JOINT rPinky2
                {
                  OFFSET -1.82734 -0.647385 -0.700984
                  CHANNELS 3 Zrotation Xrotation Yrotation
                  End Site
                  {
                    OFFSET -1.69225 -0.51767 -0.607171
                  }
                }
              }
            }
          }
        }
      }
      JOINT lCollar
      {
        OFFSET 2.68224 19.2634 -4.8768
        CHANNELS 3 Zrotation Xrotation Yrotation
        JOINT lShldr
        {
          OFFSET 8.77824 -1.95073 1.46304
          CHANNELS 3 Zrotation Xrotation Yrotation
          JOINT lForeArm
          {
            OFFSET 28.1742 -1.7115 0.48768
            CHANNELS 3 Zrotation Xrotation Yrotation
            JOINT lHand
            {
              OFFSET 22.5879 0.773209 7.07136
              CHANNELS 3 Zrotation Xrotation Yrotation
              JOINT lThumb1
              {
                OFFSET 1.2192 -0.487915 3.41376
                CHANNELS 3 Zrotation Xrotation Yrotation
                JOINT lThumb2
                {
                  OFFSET 3.37035 -0.52449 3.41376
                  CHANNELS 3 Zrotation Xrotation Yrotation
                  End Site
                  {
                    OFFSET 1.78271 -1.18214 1.43049
                  }
                }
              }
              JOINT lIndex1
              {
                OFFSET 7.75947 0.938293 5.60832
                CHANNELS 3 Zrotation Xrotation Yrotation
                JOINT lIndex2
                {
                  OFFSET 2.54057 -0.884171 1.56538
                  CHANNELS 3 Zrotation Xrotation Yrotation
                  End Site
                  {
                    OFFSET 1.62519 -0.234802 1.16502
                  }
                }
              }
              JOINT lMid1
              {
                OFFSET 8.24714 1.18213 3.41376
                CHANNELS 3 Zrotation Xrotation Yrotation
                JOINT lMid2
                {
                  OFFSET 3.10165 -0.590103 1.0647
                  CHANNELS 3 Zrotation Xrotation Yrotation
                  End Site
                  {
                    OFFSET 2.48547 -0.328903 0.83742
                  }
                }
              }
              JOINT lRing1
              {
                OFFSET 8.82822 0.546677 1.51678
                CHANNELS 3 Zrotation Xrotation Yrotation
                JOINT lRing2
                {
                  OFFSET 2.60934 -0.819778 -0.0198488
                  CHANNELS 3 Zrotation Xrotation Yrotation
                  End Site
                  {
                    OFFSET 2.33842 -0.294052 0.168128
                  }
                }
              }
              JOINT lPinky1
              {
                OFFSET 8.27202 -0.0477905 -0.4584
                CHANNELS 3 Zrotation Xrotation Yrotation
                JOINT lPinky2
                {
                  OFFSET 1.82734 -0.647385 -0.700984
                  CHANNELS 3 Zrotation Xrotation Yrotation
                  End Site
                  {
                    OFFSET 1.69225 -0.51767 -0.607171
                  }
                }
              }
            }
          }
        }
      }
    }
  }
  JOINT rButtock
  {
    OFFSET -8.77824 4.35084 1.2192
    CHANNELS 3 Zrotation Xrotation Yrotation
    JOINT rThigh
    {
      OFFSET 0 -1.70687 -2.19456
      CHANNELS 3 Zrotation Xrotation Yrotation
      JOINT rShin
      {
        OFFSET 0 -36.8199 0.73152
        CHANNELS 3 Zrotation Xrotation Yrotation
        JOINT rFoot
        {
          OFFSET 0.73152 -45.1104 -5.12064
          CHANNELS 3 Zrotation Xrotation Yrotation
          End Site
          {
            OFFSET -1.1221 -3.69964 12.103
          }
        }
      }
    }
  }
  JOINT lButtock
  {
    OFFSET 8.77824 4.35084 1.2192
    CHANNELS 3 Zrotation Xrotation Yrotation
    JOINT lThigh
    {
      OFFSET 0 -1.70687 -2.19456
      CHANNELS 3 Zrotation Xrotation Yrotation
      JOINT lShin
      {
        OFFSET 0 -36.8199 0.73152
        CHANNELS 3 Zrotation Xrotation Yrotation
        JOINT lFoot
        {
          OFFSET -0.73152 -45.1104 -5.12064
          CHANNELS 3 Zrotation Xrotation Yrotation
          End Site
          {
            OFFSET 1.1221 -3.69964 12.103
          }
        }
      }
    }
  }
}
MOTION
Frames:	4
Frame Time:	0.03333
71.5697 64.756 -135.64 -539.859 -208.196 547.98 0.393988 25.7148 -2.2137899999999995 4.86326 -11.994599999999998 -0.04771460000000001 -8.55921 14.3581 -11.457600000000001 13.558600000000002 -29.434599999999996 -19.1085 -0.0 0.0 0.0 -0.0 0.0 0.0 1.29999e-13 -8.2811e-14 -7.31282e-13 58.78729999999999 -12.8893 -2.3574999999999995 -27.133999999999997 -26.210500000000003 57.8463 -0.203027 12.2386 1.7444 3.1270799999999995e-09 -1.15379e-08 -2.40134e-11 5.39649e-09 -1.98666e-08 -8.12137e-11 3.1270799999999995e-09 -1.15379e-08 -2.40174e-11 7.730909999999999 5.47488 0.417314 3.1270799999999995e-09 -1.15379e-08 -2.4015400000000002e-11 2.90554 0.965183 0.102902 3.1270799999999995e-09 -1.15379e-08 -2.40098e-11 10.278600000000003 0.731801 0.0259123 3.1270799999999995e-09 -1.15379e-08 -2.39999e-11 2.22167 -0.733487 -0.20892000000000002 1.3006300000000002e-13 -8.277609999999998e-14 -7.31565e-13 -75.0116 66.60410000000002 12.572600000000001 28.388599999999997 -37.197900000000004 -79.03510000000001 0.16880399999999998 -11.573500000000001 1.65013 -1.28071e-09 7.64718e-09 5.8645599999999994e-09 -2.25756e-09 1.30877e-08 1.01223e-08 -1.28072e-09 7.64718e-09 5.8645599999999994e-09 -7.730909999999999 5.47488 -0.417314 -1.28072e-09 7.64717e-09 5.8645599999999994e-09 -2.90554 0.965183 -0.102902 -1.28072e-09 7.64718e-09 5.8645599999999994e-09 -10.278600000000003 0.731801 -0.0259123 -1.28071e-09 7.64718e-09 5.864550000000001e-09 -2.22167 -0.733487 0.20892000000000002 -2.03217e-16 0.0 -3.88251e-19 -57.0237 -45.2916 -52.5317 -8.2094 82.7277 7.73569 -5.82578 -4.73908 -14.442 2.03217e-16 0.0 3.88251e-19 56.6432 -40.4783 32.2646 1.11738 60.09669999999999 -1.31754 0.323732 13.272699999999999 5.87721
72.4487 64.4492 -136.1 -542.054 -213.491 546.365 1.1724799999999997 25.628 0.165789 5.212279999999999 -11.977299999999998 0.672623 -9.57011 16.0644 -13.870099999999999 16.2003 -29.429299999999998 -23.362300000000005 -0.0 0.0 0.0 -0.0 0.0 0.0 1.9081800000000002e-13 -3.8194e-14 -5.78762e-13 56.4561 -7.94479 4.17606 -22.6487 -16.763299999999997 45.58089999999999 -0.289319 15.1317 2.178 3.75097e-09 -1.10786e-08 -1.04462e-10 6.48232e-09 -1.90243e-08 -2.39688e-10 3.75097e-09 -1.10785e-08 -1.0446500000000001e-10 7.730909999999999 5.47488 0.417314 3.75097e-09 -1.10785e-08 -1.04462e-10 2.90554 0.965183 0.102902 3.75098e-09 -1.10786e-08 -1.04459e-10 10.278600000000003 0.731801 0.0259123 3.75097e-09 -1.10786e-08 -1.0445300000000001e-10 2.22167 -0.733487 -0.20892000000000002 1.90811e-13 -3.813930000000001e-14 -5.7901e-13 -82.2492 68.0989 18.2698 28.4213 -36.4784 -77.813 0.26017599999999996 -14.370600000000001 2.06354 -6.0913e-10 1.89421e-09 5.65797e-09 -1.10933e-09 3.11602e-09 9.77103e-09 -6.09141e-10 1.8942000000000003e-09 5.65798e-09 -7.730909999999999 5.47488 -0.417314 -6.09136e-10 1.8942000000000003e-09 5.65798e-09 -2.90554 0.965183 -0.102902 -6.091340000000001e-10 1.89421e-09 5.65798e-09 -10.278600000000003 0.731801 -0.0259123 -6.09124e-10 1.89421e-09 5.65796e-09 -2.22167 -0.733487 0.20892000000000002 -2.03217e-16 0.0 -3.88251e-19 -53.94290000000001 -42.0205 -49.4789 -7.21997 81.9062 6.799239999999999 -5.93181 -6.01124 -13.2726 2.03217e-16 0.0 3.88251e-19 57.8972 -42.9387 32.6971 1.04311 57.93450000000001 -0.9892169999999999 -0.000489844 17.1617 5.02891
73.3366 64.0954 -136.452 -544.811 -218.237 544.096 2.46497 26.0051 2.21614 5.29689 -11.3742 1.2978 -10.6901 17.312999999999995 -16.0529 18.056399999999996 -30.112199999999998 -27.3096 -0.0 0.0 0.0 -0.0 0.0 0.0 9.44944e-14 -4.3056200000000004e-14 -4.1665000000000005e-13 47.087 14.3185 12.8584 -17.8046 -10.673600000000002 33.7628 -0.177659 8.6352 1.26342 3.77139e-09 -4.30684e-09 1.31166e-09 6.52296e-09 -7.35486e-09 2.22044e-09 3.77139e-09 -4.30683e-09 1.31166e-09 7.730909999999999 5.47488 0.417314 3.77139e-09 -4.30683e-09 1.31167e-09 2.90554 0.965183 0.102902 3.77139e-09 -4.30684e-09 1.31166e-09 10.278600000000003 0.731801 0.0259123 3.77138e-09 -4.30684e-09 1.31167e-09 2.22167 -0.733487 -0.20892000000000002 9.44316e-14 -4.30177e-14 -4.16873e-13 -88.9256 67.7876 23.6424 28.415400000000005 -36.5535 -77.9569 0.413309 -17.8179 2.5935700000000006 7.346670000000001e-10 -3.15798e-10 6.0624400000000004e-09 1.18055e-09 -7.70243e-10 1.04921e-08 7.34654e-10 -3.1579999999999993e-10 6.06246e-09 -7.730909999999999 5.47488 -0.417314 7.34665e-10 -3.15801e-10 6.06245e-09 -2.90554 0.965183 -0.102902 7.34663e-10 -3.15794e-10 6.0624400000000004e-09 -10.278600000000003 0.731801 -0.0259123 7.34672e-10 -3.15795e-10 6.0624300000000005e-09 -2.22167 -0.733487 0.20892000000000002 -2.03217e-16 0.0 -3.88251e-19 -49.54189999999999 -38.7879 -45.29840000000001 -6.09611 80.6355 5.67013 -6.22531 -7.67407 -12.5892 2.03217e-16 0.0 3.88251e-19 58.80879999999999 -44.3204 33.0723 1.02605 57.1916 -0.8630999999999999 0.3509360000000001 12.911699999999998 5.12123
74.4703 63.580000000000005 -136.901 -547.53 -222.314 541.2140000000002 3.2144099999999995 26.6397 4.2345 4.94618 -10.811000000000002 1.83707 -11.4804 18.3762 -17.7707 19.1097 -30.9266 -30.531399999999998 -0.0 0.0 0.0 -0.0 0.0 0.0 -1.90315e-14 -7.960900000000002e-15 -2.8297e-13 31.5893 33.3859 25.1599 -12.9646 -6.1486 23.4932 -0.0483829 6.265160000000001 0.884074 3.0459999999999996e-09 2.16541e-09 2.77888e-09 5.284919999999999e-09 3.79893e-09 4.780979999999999e-09 3.0459999999999996e-09 2.16541e-09 2.77888e-09 7.730909999999999 5.47488 0.417314 3.0459900000000006e-09 2.1654e-09 2.7788899999999997e-09 2.90554 0.965183 0.102902 3.0459999999999996e-09 2.16541e-09 2.7788899999999997e-09 10.278600000000003 0.731801 0.0259123 3.0459900000000006e-09 2.16541e-09 2.7788999999999996e-09 2.22167 -0.733487 -0.20892000000000002 -1.91365e-14 -7.94207e-15 -2.8316899999999997e-13 -94.5684 66.4985 28.814500000000006 28.4031 -36.95349999999999 -78.61649999999999 0.656589 -22.382 3.31786 2.02757e-09 -1.23752e-09 5.96385e-09 3.39017e-09 -2.4076300000000003e-09 1.03464e-08 2.0275599999999996e-09 -1.23751e-09 5.96386e-09 -7.730909999999999 5.47488 -0.417314 2.02758e-09 -1.23751e-09 5.96385e-09 -2.90554 0.965183 -0.102902 2.02757e-09 -1.23751e-09 5.96385e-09 -10.278600000000003 0.731801 -0.0259123 2.02758e-09 -1.23752e-09 5.96384e-09 -2.22167 -0.733487 0.20892000000000002 -2.03217e-16 0.0 -3.88251e-19 -45.658100000000005 -35.8987 -40.861 -5.261190000000001 79.4055 4.854150000000001 -6.64914 -9.256030000000003 -12.495300000000002 2.03217e-16 0.0 3.88251e-19 59.66140000000001 -45.9823 33.790400000000005 1.0706 57.8132 -0.845431 0.8812079999999999 7.1776 4.85123
